<mxfile host="app.diagrams.net" modified="2021-03-07T16:14:54.857Z" agent="5.0 (Windows NT 10.0; Win64; x64) AppleWebKit/537.36 (KHTML, like Gecko) Chrome/88.0.4324.190 Safari/537.36" etag="bji5r6sx-h89jdQIy7o_" version="14.4.4" type="github" pages="3">
  <diagram id="5KEtw5PLEc0yM11fN-om" name="Page-1">
    <mxGraphModel dx="1662" dy="762" grid="1" gridSize="10" guides="1" tooltips="1" connect="1" arrows="1" fold="1" page="1" pageScale="1" pageWidth="827" pageHeight="1169" math="0" shadow="0">
      <root>
        <mxCell id="0" />
        <mxCell id="1" parent="0" />
        <mxCell id="Vvqj0U7t79tpE2l-MFN7-1" value="loop" style="shape=umlFrame;whiteSpace=wrap;html=1;" parent="1" vertex="1">
          <mxGeometry x="20" y="660" width="710" height="100" as="geometry" />
        </mxCell>
        <mxCell id="o0zjOt0_8NptzPJlZ0Y6-6" value="loop" style="shape=umlFrame;whiteSpace=wrap;html=1;" parent="1" vertex="1">
          <mxGeometry x="20" y="230" width="710" height="100" as="geometry" />
        </mxCell>
        <mxCell id="Dej3b4IaXxKVPcTmlRMV-1" value="t:Telepes" style="shape=umlLifeline;perimeter=lifelinePerimeter;whiteSpace=wrap;html=1;container=1;collapsible=0;recursiveResize=0;outlineConnect=0;" parent="1" vertex="1">
          <mxGeometry x="130" y="20" width="100" height="380" as="geometry" />
        </mxCell>
        <mxCell id="T9H3njHvhfvrZl21599p-1" value="" style="html=1;points=[];perimeter=orthogonalPerimeter;" parent="Dej3b4IaXxKVPcTmlRMV-1" vertex="1">
          <mxGeometry x="45" y="70" width="10" height="270" as="geometry" />
        </mxCell>
        <mxCell id="T9H3njHvhfvrZl21599p-2" value="1. Robbanas()" style="html=1;verticalAlign=bottom;endArrow=block;entryX=1;entryY=0;" parent="Dej3b4IaXxKVPcTmlRMV-1" target="T9H3njHvhfvrZl21599p-1" edge="1">
          <mxGeometry relative="1" as="geometry">
            <mxPoint x="-60" y="70" as="sourcePoint" />
          </mxGeometry>
        </mxCell>
        <mxCell id="T9H3njHvhfvrZl21599p-3" value="" style="html=1;verticalAlign=bottom;endArrow=open;dashed=1;endSize=8;" parent="Dej3b4IaXxKVPcTmlRMV-1" edge="1">
          <mxGeometry x="0.6522" y="-67" relative="1" as="geometry">
            <mxPoint x="-50" y="323" as="targetPoint" />
            <mxPoint as="offset" />
            <mxPoint x="50" y="323" as="sourcePoint" />
          </mxGeometry>
        </mxCell>
        <mxCell id="T9H3njHvhfvrZl21599p-17" value="" style="shape=umlDestroy;whiteSpace=wrap;html=1;strokeWidth=3;" parent="Dej3b4IaXxKVPcTmlRMV-1" vertex="1">
          <mxGeometry x="35" y="360" width="30" height="30" as="geometry" />
        </mxCell>
        <mxCell id="T9H3njHvhfvrZl21599p-4" value="a: Aszteroida" style="shape=umlLifeline;perimeter=lifelinePerimeter;whiteSpace=wrap;html=1;container=1;collapsible=0;recursiveResize=0;outlineConnect=0;" parent="1" vertex="1">
          <mxGeometry x="290" y="20" width="100" height="360" as="geometry" />
        </mxCell>
        <mxCell id="T9H3njHvhfvrZl21599p-5" value="" style="html=1;points=[];perimeter=orthogonalPerimeter;" parent="T9H3njHvhfvrZl21599p-4" vertex="1">
          <mxGeometry x="45" y="90" width="10" height="30" as="geometry" />
        </mxCell>
        <mxCell id="T9H3njHvhfvrZl21599p-6" value="2. HajoElhagy(t: Telepes)" style="html=1;verticalAlign=bottom;endArrow=block;entryX=0;entryY=0;" parent="1" source="Dej3b4IaXxKVPcTmlRMV-1" target="T9H3njHvhfvrZl21599p-5" edge="1">
          <mxGeometry relative="1" as="geometry">
            <mxPoint x="265" y="110" as="sourcePoint" />
            <Array as="points">
              <mxPoint x="270" y="110" />
            </Array>
          </mxGeometry>
        </mxCell>
        <mxCell id="T9H3njHvhfvrZl21599p-7" value="" style="html=1;verticalAlign=bottom;endArrow=open;dashed=1;endSize=8;exitX=0;exitY=0.95;" parent="1" source="T9H3njHvhfvrZl21599p-5" target="Dej3b4IaXxKVPcTmlRMV-1" edge="1">
          <mxGeometry relative="1" as="geometry">
            <mxPoint x="265" y="186" as="targetPoint" />
          </mxGeometry>
        </mxCell>
        <mxCell id="T9H3njHvhfvrZl21599p-8" value="p: Palya" style="shape=umlLifeline;perimeter=lifelinePerimeter;whiteSpace=wrap;html=1;container=1;collapsible=0;recursiveResize=0;outlineConnect=0;" parent="1" vertex="1">
          <mxGeometry x="470" y="20" width="100" height="360" as="geometry" />
        </mxCell>
        <mxCell id="T9H3njHvhfvrZl21599p-9" value="" style="html=1;points=[];perimeter=orthogonalPerimeter;" parent="T9H3njHvhfvrZl21599p-8" vertex="1">
          <mxGeometry x="45" y="150" width="10" height="50" as="geometry" />
        </mxCell>
        <mxCell id="T9H3njHvhfvrZl21599p-10" value="3. RemoveJatekosVezerli(t:Telepes)" style="html=1;verticalAlign=bottom;endArrow=block;entryX=0;entryY=0;" parent="1" source="Dej3b4IaXxKVPcTmlRMV-1" target="T9H3njHvhfvrZl21599p-9" edge="1">
          <mxGeometry relative="1" as="geometry">
            <mxPoint x="445" y="150" as="sourcePoint" />
          </mxGeometry>
        </mxCell>
        <mxCell id="T9H3njHvhfvrZl21599p-11" value="" style="html=1;verticalAlign=bottom;endArrow=open;dashed=1;endSize=8;exitX=0;exitY=0.95;" parent="1" source="T9H3njHvhfvrZl21599p-9" target="Dej3b4IaXxKVPcTmlRMV-1" edge="1">
          <mxGeometry x="-0.1952" y="62" relative="1" as="geometry">
            <mxPoint x="445" y="226" as="targetPoint" />
            <mxPoint as="offset" />
          </mxGeometry>
        </mxCell>
        <mxCell id="o0zjOt0_8NptzPJlZ0Y6-2" value="sz:Szallithato" style="shape=umlLifeline;perimeter=lifelinePerimeter;whiteSpace=wrap;html=1;container=1;collapsible=0;recursiveResize=0;outlineConnect=0;" parent="1" vertex="1">
          <mxGeometry x="650" y="20" width="100" height="290" as="geometry" />
        </mxCell>
        <mxCell id="o0zjOt0_8NptzPJlZ0Y6-3" value="" style="html=1;points=[];perimeter=orthogonalPerimeter;" parent="o0zjOt0_8NptzPJlZ0Y6-2" vertex="1">
          <mxGeometry x="45" y="230" width="10" height="30" as="geometry" />
        </mxCell>
        <mxCell id="o0zjOt0_8NptzPJlZ0Y6-7" value="" style="shape=umlDestroy;whiteSpace=wrap;html=1;strokeWidth=3;" parent="o0zjOt0_8NptzPJlZ0Y6-2" vertex="1">
          <mxGeometry x="35" y="270" width="30" height="30" as="geometry" />
        </mxCell>
        <mxCell id="o0zjOt0_8NptzPJlZ0Y6-4" value="4. Megsemmisul()" style="html=1;verticalAlign=bottom;endArrow=block;entryX=0;entryY=0;" parent="1" source="Dej3b4IaXxKVPcTmlRMV-1" target="o0zjOt0_8NptzPJlZ0Y6-3" edge="1">
          <mxGeometry x="0.0107" relative="1" as="geometry">
            <mxPoint x="625" y="240" as="sourcePoint" />
            <mxPoint as="offset" />
          </mxGeometry>
        </mxCell>
        <mxCell id="o0zjOt0_8NptzPJlZ0Y6-5" value="" style="html=1;verticalAlign=bottom;endArrow=open;dashed=1;endSize=8;exitX=0;exitY=0.95;" parent="1" source="o0zjOt0_8NptzPJlZ0Y6-3" target="T9H3njHvhfvrZl21599p-1" edge="1">
          <mxGeometry relative="1" as="geometry">
            <mxPoint x="625" y="316" as="targetPoint" />
          </mxGeometry>
        </mxCell>
        <mxCell id="o0zjOt0_8NptzPJlZ0Y6-8" value="[for all Szallithato in rakter]" style="text;html=1;strokeColor=none;fillColor=none;align=center;verticalAlign=middle;whiteSpace=wrap;rounded=0;" parent="1" vertex="1">
          <mxGeometry x="60" y="280" width="110" height="20" as="geometry" />
        </mxCell>
        <mxCell id="YwLwM2a6_Bhfaqsjmomt-1" value="t:Telepes" style="shape=umlLifeline;perimeter=lifelinePerimeter;whiteSpace=wrap;html=1;container=1;collapsible=0;recursiveResize=0;outlineConnect=0;" parent="1" vertex="1">
          <mxGeometry x="100" y="450" width="100" height="380" as="geometry" />
        </mxCell>
        <mxCell id="YwLwM2a6_Bhfaqsjmomt-2" value="" style="html=1;points=[];perimeter=orthogonalPerimeter;" parent="YwLwM2a6_Bhfaqsjmomt-1" vertex="1">
          <mxGeometry x="45" y="70" width="10" height="270" as="geometry" />
        </mxCell>
        <mxCell id="YwLwM2a6_Bhfaqsjmomt-3" value="1. Napvihar()" style="html=1;verticalAlign=bottom;endArrow=block;entryX=1;entryY=0;" parent="YwLwM2a6_Bhfaqsjmomt-1" target="YwLwM2a6_Bhfaqsjmomt-2" edge="1">
          <mxGeometry relative="1" as="geometry">
            <mxPoint x="-60" y="70" as="sourcePoint" />
          </mxGeometry>
        </mxCell>
        <mxCell id="YwLwM2a6_Bhfaqsjmomt-4" value="" style="html=1;verticalAlign=bottom;endArrow=open;dashed=1;endSize=8;" parent="YwLwM2a6_Bhfaqsjmomt-1" edge="1">
          <mxGeometry x="0.6522" y="-67" relative="1" as="geometry">
            <mxPoint x="-50" y="323" as="targetPoint" />
            <mxPoint as="offset" />
            <mxPoint x="50" y="323" as="sourcePoint" />
          </mxGeometry>
        </mxCell>
        <mxCell id="YwLwM2a6_Bhfaqsjmomt-5" value="" style="shape=umlDestroy;whiteSpace=wrap;html=1;strokeWidth=3;" parent="YwLwM2a6_Bhfaqsjmomt-1" vertex="1">
          <mxGeometry x="35" y="360" width="30" height="30" as="geometry" />
        </mxCell>
        <mxCell id="YwLwM2a6_Bhfaqsjmomt-6" value="a: Aszteroida" style="shape=umlLifeline;perimeter=lifelinePerimeter;whiteSpace=wrap;html=1;container=1;collapsible=0;recursiveResize=0;outlineConnect=0;" parent="1" vertex="1">
          <mxGeometry x="260" y="450" width="100" height="360" as="geometry" />
        </mxCell>
        <mxCell id="YwLwM2a6_Bhfaqsjmomt-7" value="" style="html=1;points=[];perimeter=orthogonalPerimeter;" parent="YwLwM2a6_Bhfaqsjmomt-6" vertex="1">
          <mxGeometry x="45" y="90" width="10" height="30" as="geometry" />
        </mxCell>
        <mxCell id="YwLwM2a6_Bhfaqsjmomt-8" value="2. HajoElhagy(t: Telepes)" style="html=1;verticalAlign=bottom;endArrow=block;entryX=0;entryY=0;" parent="1" source="YwLwM2a6_Bhfaqsjmomt-1" target="YwLwM2a6_Bhfaqsjmomt-7" edge="1">
          <mxGeometry relative="1" as="geometry">
            <mxPoint x="235" y="540" as="sourcePoint" />
            <Array as="points">
              <mxPoint x="240" y="540" />
            </Array>
          </mxGeometry>
        </mxCell>
        <mxCell id="YwLwM2a6_Bhfaqsjmomt-9" value="" style="html=1;verticalAlign=bottom;endArrow=open;dashed=1;endSize=8;exitX=0;exitY=0.95;" parent="1" source="YwLwM2a6_Bhfaqsjmomt-7" target="YwLwM2a6_Bhfaqsjmomt-1" edge="1">
          <mxGeometry relative="1" as="geometry">
            <mxPoint x="235" y="616" as="targetPoint" />
          </mxGeometry>
        </mxCell>
        <mxCell id="YwLwM2a6_Bhfaqsjmomt-10" value="p: Palya" style="shape=umlLifeline;perimeter=lifelinePerimeter;whiteSpace=wrap;html=1;container=1;collapsible=0;recursiveResize=0;outlineConnect=0;" parent="1" vertex="1">
          <mxGeometry x="440" y="450" width="100" height="360" as="geometry" />
        </mxCell>
        <mxCell id="YwLwM2a6_Bhfaqsjmomt-11" value="" style="html=1;points=[];perimeter=orthogonalPerimeter;" parent="YwLwM2a6_Bhfaqsjmomt-10" vertex="1">
          <mxGeometry x="45" y="150" width="10" height="50" as="geometry" />
        </mxCell>
        <mxCell id="YwLwM2a6_Bhfaqsjmomt-12" value="3. RemoveJatekosVezerli(t:Telepes)" style="html=1;verticalAlign=bottom;endArrow=block;entryX=0;entryY=0;" parent="1" source="YwLwM2a6_Bhfaqsjmomt-1" target="YwLwM2a6_Bhfaqsjmomt-11" edge="1">
          <mxGeometry relative="1" as="geometry">
            <mxPoint x="415" y="580" as="sourcePoint" />
          </mxGeometry>
        </mxCell>
        <mxCell id="YwLwM2a6_Bhfaqsjmomt-13" value="" style="html=1;verticalAlign=bottom;endArrow=open;dashed=1;endSize=8;exitX=0;exitY=0.95;" parent="1" source="YwLwM2a6_Bhfaqsjmomt-11" target="YwLwM2a6_Bhfaqsjmomt-1" edge="1">
          <mxGeometry x="-0.1952" y="62" relative="1" as="geometry">
            <mxPoint x="415" y="656" as="targetPoint" />
            <mxPoint as="offset" />
          </mxGeometry>
        </mxCell>
        <mxCell id="YwLwM2a6_Bhfaqsjmomt-14" value="sz:Szallithato" style="shape=umlLifeline;perimeter=lifelinePerimeter;whiteSpace=wrap;html=1;container=1;collapsible=0;recursiveResize=0;outlineConnect=0;" parent="1" vertex="1">
          <mxGeometry x="620" y="450" width="100" height="290" as="geometry" />
        </mxCell>
        <mxCell id="YwLwM2a6_Bhfaqsjmomt-15" value="" style="html=1;points=[];perimeter=orthogonalPerimeter;" parent="YwLwM2a6_Bhfaqsjmomt-14" vertex="1">
          <mxGeometry x="45" y="230" width="10" height="30" as="geometry" />
        </mxCell>
        <mxCell id="YwLwM2a6_Bhfaqsjmomt-16" value="" style="shape=umlDestroy;whiteSpace=wrap;html=1;strokeWidth=3;" parent="YwLwM2a6_Bhfaqsjmomt-14" vertex="1">
          <mxGeometry x="35" y="270" width="30" height="30" as="geometry" />
        </mxCell>
        <mxCell id="YwLwM2a6_Bhfaqsjmomt-17" value="4. Megsemmisul()" style="html=1;verticalAlign=bottom;endArrow=block;entryX=0;entryY=0;" parent="1" edge="1">
          <mxGeometry x="-0.0204" relative="1" as="geometry">
            <mxPoint x="147.5" y="680" as="sourcePoint" />
            <mxPoint x="1" as="offset" />
            <mxPoint x="663" y="680" as="targetPoint" />
          </mxGeometry>
        </mxCell>
        <mxCell id="YwLwM2a6_Bhfaqsjmomt-18" value="" style="html=1;verticalAlign=bottom;endArrow=open;dashed=1;endSize=8;exitX=0;exitY=0.95;" parent="1" source="YwLwM2a6_Bhfaqsjmomt-15" target="YwLwM2a6_Bhfaqsjmomt-2" edge="1">
          <mxGeometry relative="1" as="geometry">
            <mxPoint x="595" y="746" as="targetPoint" />
          </mxGeometry>
        </mxCell>
        <mxCell id="YwLwM2a6_Bhfaqsjmomt-19" value="[for all Szallithato in rakter]" style="text;html=1;strokeColor=none;fillColor=none;align=center;verticalAlign=middle;whiteSpace=wrap;rounded=0;" parent="1" vertex="1">
          <mxGeometry x="30" y="710" width="110" height="20" as="geometry" />
        </mxCell>
        <mxCell id="YwLwM2a6_Bhfaqsjmomt-20" value="Azért van kettő, mert a két függvény itt ugyanazt csinálja&lt;br&gt;A robotnál viszont már nem&lt;br&gt;Még az lenne megfontolandó hogy lehet-e absztr. oszt-ra írni egy általános Napvihar()-t, vagy az illegális, mert nem példány hív függvényt&lt;br&gt;&lt;br&gt;Egyébként lehet úgy jobb hogy az itteni napvihar ellenőrzi a feltételeket, de nem volt erőm mindent átírni és nem vagyok telejesen biztos benne" style="rounded=0;whiteSpace=wrap;html=1;fillColor=#fff2cc;strokeColor=#d6b656;" parent="1" vertex="1">
          <mxGeometry x="170" y="970" width="430" height="120" as="geometry" />
        </mxCell>
        <mxCell id="JYPngEKVcUplagBo25Qg-1" value="&lt;h1&gt;Innen nem kell semmi&lt;/h1&gt;&lt;div&gt;lásd az (új) végűt&lt;/div&gt;" style="text;html=1;strokeColor=none;fillColor=none;spacing=5;spacingTop=-20;whiteSpace=wrap;overflow=hidden;rounded=0;" vertex="1" parent="1">
          <mxGeometry x="10" y="100" width="190" height="120" as="geometry" />
        </mxCell>
      </root>
    </mxGraphModel>
  </diagram>
  <diagram id="oESr9jaUlRn2i45ng5Jw" name="TpElront">
    <mxGraphModel dx="1662" dy="762" grid="1" gridSize="10" guides="1" tooltips="1" connect="1" arrows="1" fold="1" page="1" pageScale="1" pageWidth="1169" pageHeight="827" math="0" shadow="0">
      <root>
        <mxCell id="5X48bqwgUz6Cjhoxq8bb-0" />
        <mxCell id="5X48bqwgUz6Cjhoxq8bb-1" parent="5X48bqwgUz6Cjhoxq8bb-0" />
        <mxCell id="u8d5MU89FU-V44BM_1yZ-0" value="t:Telpes" style="shape=umlLifeline;perimeter=lifelinePerimeter;whiteSpace=wrap;html=1;container=1;collapsible=0;recursiveResize=0;outlineConnect=0;" parent="5X48bqwgUz6Cjhoxq8bb-1" vertex="1">
          <mxGeometry x="110" y="100" width="100" height="260" as="geometry" />
        </mxCell>
        <mxCell id="u8d5MU89FU-V44BM_1yZ-1" value="tpk:Teleportkapu" style="shape=umlLifeline;perimeter=lifelinePerimeter;whiteSpace=wrap;html=1;container=1;collapsible=0;recursiveResize=0;outlineConnect=0;" parent="5X48bqwgUz6Cjhoxq8bb-1" vertex="1">
          <mxGeometry x="360" y="100" width="100" height="260" as="geometry" />
        </mxCell>
        <mxCell id="W_NRV8ByrvrpUXR6Kkwi-0" value="" style="html=1;points=[];perimeter=orthogonalPerimeter;" parent="u8d5MU89FU-V44BM_1yZ-1" vertex="1">
          <mxGeometry x="45" y="70" width="10" height="120" as="geometry" />
        </mxCell>
        <mxCell id="W_NRV8ByrvrpUXR6Kkwi-3" value="" style="shape=umlDestroy;whiteSpace=wrap;html=1;strokeWidth=3;" parent="u8d5MU89FU-V44BM_1yZ-1" vertex="1">
          <mxGeometry x="35" y="200" width="30" height="30" as="geometry" />
        </mxCell>
        <mxCell id="W_NRV8ByrvrpUXR6Kkwi-1" value="1: Megsemmisul()" style="html=1;verticalAlign=bottom;endArrow=block;entryX=0;entryY=0;" parent="5X48bqwgUz6Cjhoxq8bb-1" source="u8d5MU89FU-V44BM_1yZ-0" target="W_NRV8ByrvrpUXR6Kkwi-0" edge="1">
          <mxGeometry relative="1" as="geometry">
            <mxPoint x="335" y="240" as="sourcePoint" />
          </mxGeometry>
        </mxCell>
        <mxCell id="W_NRV8ByrvrpUXR6Kkwi-2" value="" style="html=1;verticalAlign=bottom;endArrow=open;dashed=1;endSize=8;exitX=0;exitY=0.95;" parent="5X48bqwgUz6Cjhoxq8bb-1" source="W_NRV8ByrvrpUXR6Kkwi-0" target="u8d5MU89FU-V44BM_1yZ-0" edge="1">
          <mxGeometry relative="1" as="geometry">
            <mxPoint x="335" y="316" as="targetPoint" />
          </mxGeometry>
        </mxCell>
        <mxCell id="W_NRV8ByrvrpUXR6Kkwi-4" value="par:Teleportkapu" style="shape=umlLifeline;perimeter=lifelinePerimeter;whiteSpace=wrap;html=1;container=1;collapsible=0;recursiveResize=0;outlineConnect=0;" parent="5X48bqwgUz6Cjhoxq8bb-1" vertex="1">
          <mxGeometry x="580" y="100" width="100" height="260" as="geometry" />
        </mxCell>
        <mxCell id="W_NRV8ByrvrpUXR6Kkwi-5" value="" style="html=1;points=[];perimeter=orthogonalPerimeter;" parent="W_NRV8ByrvrpUXR6Kkwi-4" vertex="1">
          <mxGeometry x="45" y="90" width="10" height="70" as="geometry" />
        </mxCell>
        <mxCell id="W_NRV8ByrvrpUXR6Kkwi-6" value="Elront()" style="html=1;verticalAlign=bottom;endArrow=block;entryX=0;entryY=0;exitX=1;exitY=0.183;exitDx=0;exitDy=0;exitPerimeter=0;" parent="5X48bqwgUz6Cjhoxq8bb-1" source="W_NRV8ByrvrpUXR6Kkwi-0" target="W_NRV8ByrvrpUXR6Kkwi-5" edge="1">
          <mxGeometry relative="1" as="geometry">
            <mxPoint x="440" y="190" as="sourcePoint" />
          </mxGeometry>
        </mxCell>
        <mxCell id="W_NRV8ByrvrpUXR6Kkwi-7" value="" style="html=1;verticalAlign=bottom;endArrow=open;dashed=1;endSize=8;exitX=0;exitY=0.95;" parent="5X48bqwgUz6Cjhoxq8bb-1" source="W_NRV8ByrvrpUXR6Kkwi-5" target="W_NRV8ByrvrpUXR6Kkwi-0" edge="1">
          <mxGeometry x="-0.0952" y="-16" relative="1" as="geometry">
            <mxPoint x="555" y="266" as="targetPoint" />
            <mxPoint as="offset" />
          </mxGeometry>
        </mxCell>
      </root>
    </mxGraphModel>
  </diagram>
  <diagram id="Vt6fPLjCAtHGEedm10zb" name="meghal fgv!!">
    <mxGraphModel dx="1662" dy="762" grid="1" gridSize="10" guides="1" tooltips="1" connect="1" arrows="1" fold="1" page="1" pageScale="1" pageWidth="827" pageHeight="1169" math="0" shadow="0">
      <root>
        <mxCell id="Dkgl5-1D5Whyasi61YYZ-0" />
        <mxCell id="Dkgl5-1D5Whyasi61YYZ-1" parent="Dkgl5-1D5Whyasi61YYZ-0" />
        <mxCell id="QwZIQJV-YJ6bEpHnTJy7-0" value="loop" style="shape=umlFrame;whiteSpace=wrap;html=1;" parent="Dkgl5-1D5Whyasi61YYZ-1" vertex="1">
          <mxGeometry x="20" y="230" width="710" height="100" as="geometry" />
        </mxCell>
        <mxCell id="QwZIQJV-YJ6bEpHnTJy7-1" value="t:Telepes" style="shape=umlLifeline;perimeter=lifelinePerimeter;whiteSpace=wrap;html=1;container=1;collapsible=0;recursiveResize=0;outlineConnect=0;" parent="Dkgl5-1D5Whyasi61YYZ-1" vertex="1">
          <mxGeometry x="130" y="20" width="100" height="390" as="geometry" />
        </mxCell>
        <mxCell id="QwZIQJV-YJ6bEpHnTJy7-3" value="" style="shape=umlDestroy;whiteSpace=wrap;html=1;strokeWidth=3;" parent="QwZIQJV-YJ6bEpHnTJy7-1" vertex="1">
          <mxGeometry x="35" y="380" width="30" height="30" as="geometry" />
        </mxCell>
        <mxCell id="neKXatLdTC4Wc98FXRbM-0" value="" style="html=1;points=[];perimeter=orthogonalPerimeter;" parent="Dkgl5-1D5Whyasi61YYZ-1" vertex="1">
          <mxGeometry x="175" y="90" width="10" height="270" as="geometry" />
        </mxCell>
        <mxCell id="neKXatLdTC4Wc98FXRbM-1" value="1. Meghal()" style="html=1;verticalAlign=bottom;endArrow=block;entryX=1;entryY=0;" parent="Dkgl5-1D5Whyasi61YYZ-1" target="neKXatLdTC4Wc98FXRbM-0" edge="1">
          <mxGeometry x="0.0435" relative="1" as="geometry">
            <mxPoint x="70" y="90" as="sourcePoint" />
            <mxPoint as="offset" />
          </mxGeometry>
        </mxCell>
        <mxCell id="neKXatLdTC4Wc98FXRbM-2" value="" style="html=1;verticalAlign=bottom;endArrow=open;dashed=1;endSize=8;" parent="Dkgl5-1D5Whyasi61YYZ-1" edge="1">
          <mxGeometry x="0.6522" y="-67" relative="1" as="geometry">
            <mxPoint x="80" y="343" as="targetPoint" />
            <mxPoint as="offset" />
            <mxPoint x="180" y="343" as="sourcePoint" />
          </mxGeometry>
        </mxCell>
        <mxCell id="neKXatLdTC4Wc98FXRbM-3" value="a: Aszteroida" style="shape=umlLifeline;perimeter=lifelinePerimeter;whiteSpace=wrap;html=1;container=1;collapsible=0;recursiveResize=0;outlineConnect=0;" parent="Dkgl5-1D5Whyasi61YYZ-1" vertex="1">
          <mxGeometry x="290" y="20" width="100" height="360" as="geometry" />
        </mxCell>
        <mxCell id="neKXatLdTC4Wc98FXRbM-4" value="" style="html=1;points=[];perimeter=orthogonalPerimeter;" parent="neKXatLdTC4Wc98FXRbM-3" vertex="1">
          <mxGeometry x="45" y="90" width="10" height="30" as="geometry" />
        </mxCell>
        <mxCell id="neKXatLdTC4Wc98FXRbM-5" value="2. HajoElhagy(t: Telepes)" style="html=1;verticalAlign=bottom;endArrow=block;entryX=0;entryY=0;" parent="Dkgl5-1D5Whyasi61YYZ-1" target="neKXatLdTC4Wc98FXRbM-4" edge="1">
          <mxGeometry relative="1" as="geometry">
            <mxPoint x="179.5" y="110" as="sourcePoint" />
            <Array as="points">
              <mxPoint x="270" y="110" />
            </Array>
          </mxGeometry>
        </mxCell>
        <mxCell id="neKXatLdTC4Wc98FXRbM-6" value="" style="html=1;verticalAlign=bottom;endArrow=open;dashed=1;endSize=8;exitX=0;exitY=0.95;" parent="Dkgl5-1D5Whyasi61YYZ-1" source="neKXatLdTC4Wc98FXRbM-4" edge="1">
          <mxGeometry relative="1" as="geometry">
            <mxPoint x="179.5" y="138.5" as="targetPoint" />
          </mxGeometry>
        </mxCell>
        <mxCell id="neKXatLdTC4Wc98FXRbM-7" value="p: Palya" style="shape=umlLifeline;perimeter=lifelinePerimeter;whiteSpace=wrap;html=1;container=1;collapsible=0;recursiveResize=0;outlineConnect=0;" parent="Dkgl5-1D5Whyasi61YYZ-1" vertex="1">
          <mxGeometry x="470" y="20" width="100" height="360" as="geometry" />
        </mxCell>
        <mxCell id="neKXatLdTC4Wc98FXRbM-8" value="" style="html=1;points=[];perimeter=orthogonalPerimeter;" parent="neKXatLdTC4Wc98FXRbM-7" vertex="1">
          <mxGeometry x="45" y="150" width="10" height="50" as="geometry" />
        </mxCell>
        <mxCell id="neKXatLdTC4Wc98FXRbM-9" value="3. RemoveHajo(t:Telepes)" style="html=1;verticalAlign=bottom;endArrow=block;entryX=0;entryY=0;" parent="Dkgl5-1D5Whyasi61YYZ-1" target="neKXatLdTC4Wc98FXRbM-8" edge="1">
          <mxGeometry relative="1" as="geometry">
            <mxPoint x="179.5" y="170" as="sourcePoint" />
          </mxGeometry>
        </mxCell>
        <mxCell id="neKXatLdTC4Wc98FXRbM-10" value="" style="html=1;verticalAlign=bottom;endArrow=open;dashed=1;endSize=8;exitX=0;exitY=0.95;" parent="Dkgl5-1D5Whyasi61YYZ-1" source="neKXatLdTC4Wc98FXRbM-8" edge="1">
          <mxGeometry x="-0.1952" y="62" relative="1" as="geometry">
            <mxPoint x="179.5" y="217.5" as="targetPoint" />
            <mxPoint as="offset" />
          </mxGeometry>
        </mxCell>
        <mxCell id="neKXatLdTC4Wc98FXRbM-11" value="" style="html=1;points=[];perimeter=orthogonalPerimeter;" parent="Dkgl5-1D5Whyasi61YYZ-1" vertex="1">
          <mxGeometry x="695" y="250" width="10" height="30" as="geometry" />
        </mxCell>
        <mxCell id="neKXatLdTC4Wc98FXRbM-12" value="" style="shape=umlDestroy;whiteSpace=wrap;html=1;strokeWidth=3;" parent="Dkgl5-1D5Whyasi61YYZ-1" vertex="1">
          <mxGeometry x="685" y="290" width="30" height="30" as="geometry" />
        </mxCell>
        <mxCell id="neKXatLdTC4Wc98FXRbM-13" value="4. Megsemmisul()" style="html=1;verticalAlign=bottom;endArrow=block;entryX=0;entryY=0;" parent="Dkgl5-1D5Whyasi61YYZ-1" target="neKXatLdTC4Wc98FXRbM-11" edge="1">
          <mxGeometry x="0.0107" relative="1" as="geometry">
            <mxPoint x="179.5" y="250" as="sourcePoint" />
            <mxPoint as="offset" />
          </mxGeometry>
        </mxCell>
        <mxCell id="neKXatLdTC4Wc98FXRbM-14" value="" style="html=1;verticalAlign=bottom;endArrow=open;dashed=1;endSize=8;exitX=0;exitY=0.95;" parent="Dkgl5-1D5Whyasi61YYZ-1" source="neKXatLdTC4Wc98FXRbM-11" target="neKXatLdTC4Wc98FXRbM-0" edge="1">
          <mxGeometry relative="1" as="geometry">
            <mxPoint x="625" y="316" as="targetPoint" />
          </mxGeometry>
        </mxCell>
        <mxCell id="neKXatLdTC4Wc98FXRbM-15" value="[for all sz: Szallithato in rakter]" style="text;html=1;strokeColor=none;fillColor=none;align=center;verticalAlign=middle;whiteSpace=wrap;rounded=0;" parent="Dkgl5-1D5Whyasi61YYZ-1" vertex="1">
          <mxGeometry x="30" y="280" width="140" height="20" as="geometry" />
        </mxCell>
        <mxCell id="Ymo5TnjC82ZYOZYta49G-0" value="sz:Szallithato" style="shape=umlLifeline;perimeter=lifelinePerimeter;whiteSpace=wrap;html=1;container=1;collapsible=0;recursiveResize=0;outlineConnect=0;" parent="Dkgl5-1D5Whyasi61YYZ-1" vertex="1">
          <mxGeometry x="650" y="20" width="100" height="290" as="geometry" />
        </mxCell>
        <mxCell id="Ymo5TnjC82ZYOZYta49G-1" value="" style="html=1;points=[];perimeter=orthogonalPerimeter;" parent="Ymo5TnjC82ZYOZYta49G-0" vertex="1">
          <mxGeometry x="45" y="230" width="10" height="30" as="geometry" />
        </mxCell>
        <mxCell id="Ymo5TnjC82ZYOZYta49G-2" value="" style="shape=umlDestroy;whiteSpace=wrap;html=1;strokeWidth=3;" parent="Ymo5TnjC82ZYOZYta49G-0" vertex="1">
          <mxGeometry x="35" y="270" width="30" height="30" as="geometry" />
        </mxCell>
        <mxCell id="Ymo5TnjC82ZYOZYta49G-3" value="" style="ellipse;html=1;shape=endState;fillColor=#000000;strokeColor=#ff0000;" parent="Dkgl5-1D5Whyasi61YYZ-1" vertex="1">
          <mxGeometry x="20" y="20" width="30" height="30" as="geometry" />
        </mxCell>
      </root>
    </mxGraphModel>
  </diagram>
</mxfile>
